# xmcd
#
# Track frame offsets: 
#        150
#        23829
#        44322
#        45861
#        61251
#        62952
#        75345
#        76209
#        87117
#        89520
#        102669
#        104424
#        114630
#        116655
#        133962
#        137472
#        165012
#        190932
#        201003
#        203838
#        215340
#        242583
#        249225
#        251034
#        274065
#        279600
#        310596
#
# Disc length: 4159 seconds
#
# Revision: 0
# Processed by: cddbd v1.5.2PL0 Copyright (c) Steve Scherf et al.
# Submitted via: ExactAudioCopy v0.95b3
#
DISCID=6f103d1b
DTITLE=The Beatles  - The Days In Their Life - Vol.10  FLAC
DYEAR=1900
DGENRE=
TTITLE0=Narrative
TTITLE1=I Am The Walrus
TTITLE2=Narrative
TTITLE3=Hello Goodbye
TTITLE4=Narrative
TTITLE5=Magical Mystery Tour
TTITLE6=Narrative
TTITLE7=Your Mother Should Know
TTITLE8=Narrative
TTITLE9=The Fool On The Hill
TTITLE10=Narrative
TTITLE11=Flying
TTITLE12=Narrative
TTITLE13=Blue Jay Way
TTITLE14=Narrative
TTITLE15=1967 Christmas Message
TTITLE16=Narrative
TTITLE17=Lady Madonna
TTITLE18=Narrative
TTITLE19=The Inner Light
TTITLE20=Narrative
TTITLE21=Thingumybob
TTITLE22=Narrative
TTITLE23=Those Were The Days
TTITLE24=Narrative
TTITLE25=Hey Jude
TTITLE26=Narrative
EXTD=
EXTT0=
EXTT1=
EXTT2=
EXTT3=
EXTT4=
EXTT5=
EXTT6=
EXTT7=
EXTT8=
EXTT9=
EXTT10=
EXTT11=
EXTT12=
EXTT13=
EXTT14=
EXTT15=
EXTT16=
EXTT17=
EXTT18=
EXTT19=
EXTT20=
EXTT21=
EXTT22=
EXTT23=
EXTT24=
EXTT25=
EXTT26=
PLAYORDER=
